<svg width="40" height="40" viewBox="0 0 40 40" fill="none" xmlns="http://www.w3.org/2000/svg">
<path fill-rule="evenodd" clip-rule="evenodd" d="M0.800049 20C0.800049 9.40165 9.40165 0.800049 20 0.800049C30.5985 0.800049 39.2001 9.40165 39.2001 20C39.2001 30.5985 30.5985 39.2001 20 39.2001C9.40165 39.2001 0.800049 30.5985 0.800049 20ZM27.4093 12.9903C26.9678 12.6817 26.3556 12.7557 26.0058 13.16L17.8957 22.5311L13.715 18.7738C13.3165 18.4157 12.7008 18.4157 12.3023 18.7738L10.7329 20.1842C10.2891 20.5831 10.2891 21.264 10.7329 21.6629L16.5953 26.9314C16.7874 27.1041 17.0396 27.2001 17.3016 27.2001H18.9073C19.2144 27.2001 19.5058 27.0683 19.7033 26.8401L29.3568 15.6856C29.7452 15.2368 29.6585 14.5625 29.1684 14.2199L27.4093 12.9903Z" fill="#05AE71"/>
</svg>
