<svg width="40" height="40" viewBox="0 0 40 40" fill="none" xmlns="http://www.w3.org/2000/svg">
<path fill-rule="evenodd" clip-rule="evenodd" d="M19.9998 0.799805C9.4014 0.799805 0.799805 9.40141 0.799805 19.9998C0.799805 30.5982 9.4014 39.1998 19.9998 39.1998C30.5982 39.1998 39.1998 30.5982 39.1998 19.9998C39.1998 9.40141 30.5982 0.799805 19.9998 0.799805ZM12.4095 11.4835C12.7319 11.161 13.2548 11.161 13.5772 11.4835L20 17.9062L26.4225 11.4838C26.745 11.1613 27.2678 11.1613 27.5903 11.4838L28.758 12.6515C29.0805 12.974 29.0805 13.4968 28.758 13.8192L22.3355 20.2417L28.7579 26.6641C29.0804 26.9865 29.0804 27.5094 28.7579 27.8318L27.5902 28.9996C27.2677 29.322 26.7449 29.322 26.4224 28.9996L20 22.5772L13.5773 28.9998C13.2549 29.3223 12.7321 29.3223 12.4096 28.9998L11.2419 27.8321C10.9194 27.5096 10.9194 26.9868 11.2419 26.6643L17.6645 20.2417L11.2417 13.819C10.9193 13.4965 10.9193 12.9737 11.2417 12.6512L12.4095 11.4835Z" fill="#E84E58"/>
</svg>
